<svg xmlns="http://www.w3.org/2000/svg" version="1.1" xmlns:xlink="http://www.w3.org/1999/xlink" xmlns:svgjs="http://svgjs.dev/svgjs" viewBox="0 0 9.216460205813545 3.1376117839706916"><g transform="matrix(0.7529453083089891,0,0,0.7529453083089891,1.5260657232823487,1.1904508745600788)"><rect width="10.245966204962231" height="10.245966204962231" x="-1.0295059991486868" y="-4.620483102481115" fill="#ffffff"></rect><g clip-path="url(#SvgjsClipPath25957)"><g clip-path="url(#SvgjsClipPath259522be41061-eb7c-47aa-afeb-97db0deefc7b)"><path d=" M 4.9775745386928 0.9480610028169112 C 4.978720652826961 0.9406892827990678 4.979893671048778 0.9335758420227254 4.982960737041604 0.9267099188528212 C 4.985349820025489 0.9213506245916738 4.988389981930658 0.9160236152357137 4.992091984392173 0.9114553011516635 C 5.010376002363438 0.8888720099729122 5.0417676918408825 0.8913310435847035 5.068020700575962 0.8911104300659214 C 5.135910475368029 0.8905346825900753 5.203843296700346 0.8912126655990156 5.271738452309944 0.8912019039639532 C 5.29565080541892 0.8912019039639532 5.319568539345427 0.8911965231464218 5.343480892454402 0.8912664737743285 C 5.355539304541985 0.8913041394970473 5.368485551522227 0.8901472637278234 5.3804309664416525 0.8916269885489239 C 5.33526438408415 0.9446065179618341 5.305476178231024 1.0051138111009952 5.291012540706963 1.0731327255138128 C 5.286298944549569 1.0952909321075934 5.285438013744565 1.1175890399571873 5.2840067162812465 1.1400969996905008 C 5.283678486411839 1.1452787269731166 5.28326416346193 1.1505626897888264 5.283420207170337 1.1557497978889733 C 5.283506300250838 1.1584940148299223 5.284560940486967 1.1629977591035974 5.283355637359962 1.1654890776205769 C 5.265851837930732 1.1647519056187923 5.248025189449626 1.1667858546456134 5.230467581845083 1.1668181395508008 C 5.184434687865045 1.166914994266364 5.138401793885008 1.166506052133987 5.0923688999049705 1.1669257559014266 C 5.05448256366728 1.167270128223428 5.0171504516353105 1.1689381816581224 4.991354812390389 1.1360452440894526 C 4.975325356964728 1.115608899105679 4.976008720791199 1.0907818070163873 4.975858057900324 1.0660623312777207 C 4.975621301928948 1.0271859246142754 4.973210695674938 0.9867114151440428 4.9775745386928 0.9480610028169112 Z" fill="#222c38" transform="matrix(1,0,0,1,0,0)" fill-rule="evenodd"></path></g><g clip-path="url(#SvgjsClipPath259522be41061-eb7c-47aa-afeb-97db0deefc7b)"><path d=" M 5.027643045821292 -0.4509946018542287 C 5.03359423001088 -0.4964625099934826 5.06390975598207 -0.5359415682204302 5.109339998398605 -0.547682512073667 C 5.125138078670421 -0.5517665525799029 5.140941539759769 -0.5510293805781187 5.15710013480618 -0.5510024764904623 C 5.17857497757349 -0.5509701915852746 5.200044439523268 -0.5508948601398368 5.2215192822905765 -0.5508894793223056 C 5.293261722435036 -0.550878717687243 5.365004162579494 -0.550878717687243 5.436746602723952 -0.550878717687243 C 5.776938029503603 -0.550878717687243 6.117124075465722 -0.5509432874976182 6.457310121427842 -0.550878717687243 C 6.549930133593638 -0.5508625752346492 6.642550145759435 -0.5507711013366176 6.73517015792523 -0.5508894793223056 C 6.75656428842957 -0.5509163834099619 6.77795841893391 -0.5507980054242739 6.79935254943825 -0.5507872437892114 C 6.824373350958668 -0.5507711013366176 6.846962022954951 -0.5510239997605874 6.869841259097923 -0.5392023436443814 C 6.898472589181824 -0.5244104762509127 6.921502488215671 -0.49413261600244157 6.926103087204909 -0.4619391847128373 C 6.929089440934765 -0.4410616126914994 6.926641168958036 -0.4185859378633735 6.92657121833013 -0.39752541804597236 C 6.926393651351598 -0.34371724273324583 6.926350604811348 -0.28991444823805057 6.926334462358754 -0.23610627292532405 C 6.92627527336591 -0.025657118459719297 6.926312939088628 0.18479203600588534 6.9263237007236915 0.3952465712890215 C 6.926329081541223 0.4628027353941495 6.926329081541223 0.5303642803168092 6.926329081541223 0.5979204444219373 C 6.926329081541223 0.634623000802748 6.930084892178051 0.6739137304161009 6.9235418180600234 0.7101696789418162 C 6.916654371619995 0.7483411985086641 6.886989924570088 0.7827676690737466 6.84793057011058 0.7902093397194965 C 6.832573716876328 0.7931365044565089 6.816824063962293 0.7923939516371934 6.80125197802679 0.7922970969216303 C 6.7798739899750435 0.7921733381184111 6.758496001923297 0.7921087683080361 6.73711263305402 0.7922056230235988 C 6.661189297687763 0.792544614528069 6.585249819868912 0.7919258205119728 6.5093211036851235 0.791952724599629 C 6.367079192245931 0.7920011519574104 6.224837280806738 0.7916298755477524 6.082595369367546 0.7920172944100043 C 6.016158415308922 0.7922002422060674 5.9495654175418915 0.7966986056622116 5.883101559395612 0.7942288104153574 C 5.873093238787445 0.7938521531881682 5.863692950560312 0.7868624712150449 5.8547123661006175 0.7829075703295594 C 5.837030999692855 0.7751269081793395 5.818816932349497 0.767636810175808 5.800323062494513 0.761997713403034 C 5.747241297548509 0.7458229759040285 5.692722854321654 0.7427989564514534 5.6376663293416724 0.7482927711508829 C 5.603099957520777 0.7517364943708971 5.568614297962851 0.7598346247554624 5.5363347735927455 0.7727109211077978 C 5.524357073768133 0.7774890870755682 5.512260995957832 0.7824986281971829 5.500659953360408 0.7881162016998315 C 5.496285348707484 0.7902362438071531 5.4899467456556446 0.7958161515870825 5.4850340592495925 0.7959345295727709 C 5.479179729775568 0.7960744308285836 5.47301331288473 0.794180383057576 5.467115936870455 0.7938682956407621 C 5.45102729245195 0.7930235072883522 5.434954790486038 0.7922486695638491 5.418828480344814 0.7920495793151916 C 5.357853056080432 0.7913124073134075 5.296850727728394 0.7921356723956923 5.235869922646481 0.7920818642203795 C 5.213152111029448 0.7920603409502542 5.190423537777352 0.7918881547892538 5.167705726160319 0.7924316173599122 C 5.135458486695402 0.7931956934493529 5.103630950997925 0.7941750022400447 5.075171807075023 0.7763268304888133 C 5.048396859039411 0.7595332989737114 5.0311674813042755 0.7258278579578195 5.026938158724695 0.6951033898542525 C 5.0247643084420615 0.6792730246772485 5.026561501497506 0.6623019261836147 5.026679879483194 0.6463370405683286 C 5.02712648733829 0.5883533508513343 5.026868208096789 0.5303588994992778 5.026862827279257 0.47236982896475244 C 5.026846684826664 0.26610695053847777 5.02683054237407 0.0598386912946719 5.026905873819508 -0.14642418713160277 C 5.026932777907164 -0.2127858097447884 5.026943539542226 -0.27914743235797396 5.026857446461726 -0.3455144357886909 C 5.02683054237407 -0.36763497665975275 5.026809019103944 -0.3897555175308146 5.026776734198757 -0.4118760584018765 C 5.0267605917461635 -0.42491916009768144 5.025948088298941 -0.4380322124213929 5.027643045821292 -0.4509946018542287 Z M 5.203466639473157 -0.2518989723796093 C 5.20183087094365 -0.22957396044235912 5.214470411324609 -0.2051934762081627 5.238641043675086 -0.2015560435570224 C 5.248186613975564 -0.20011936527617258 5.258512402818076 -0.20112557815452053 5.268149447016586 -0.20113633978958312 C 5.285486441102346 -0.20115786305970818 5.302823435188107 -0.20110405488439542 5.320165810091399 -0.20110405488439542 C 5.375168526896068 -0.2011094357019267 5.430171243700737 -0.20110405488439542 5.4851739605054055 -0.201114816519458 C 5.797864028882722 -0.2011524822421769 6.110548716442507 -0.2011793863298333 6.423238784819823 -0.20115786305970818 C 6.508131943010712 -0.2011524822421769 6.593025101201601 -0.2010610083441453 6.67791825939249 -0.20099643853377003 C 6.704122840769787 -0.20098029608117618 6.739582428300873 -0.1974827646858489 6.752157398871458 -0.22677055450856604 C 6.753938449474309 -0.23092992646023974 6.75538050857269 -0.23543905155144618 6.7557517849823485 -0.23996969991277778 C 6.757554358855325 -0.26185348481246373 6.748078739182754 -0.2865191523758175 6.724327810599716 -0.2914479812344633 C 6.7139751176695475 -0.29360030824697236 6.702793778839562 -0.29263176109134326 6.692285042200988 -0.292626380273812 C 6.674942667297696 -0.292626380273812 6.657605673211935 -0.292626380273812 6.640263298308643 -0.29262099945628073 C 6.585260581503975 -0.2925994761861556 6.530257864699305 -0.2925940953686244 6.475249767077105 -0.2925940953686244 C 6.161967808771348 -0.2925994761861556 5.848685850465592 -0.2925833337335618 5.535398511342304 -0.2925887145510931 C 5.451102623897387 -0.2925887145510931 5.36680673645247 -0.29250262147059275 5.2825108490075525 -0.29268018844912475 C 5.25611793901666 -0.2927393774419687 5.217924896179687 -0.2987120849016814 5.206399185027701 -0.26751410485536253 C 5.2045912303371935 -0.2626229417194357 5.203848677517877 -0.25708069966222485 5.203466639473157 -0.2518989723796093 Z M 5.203558113371189 0.5086203966729363 C 5.201933106476744 0.5310799290484685 5.212070566705662 0.55611687302148 5.2360367279899505 0.5617774930643789 C 5.2457221995462415 0.5640643405151697 5.256483834608787 0.5630204619141028 5.266363015596204 0.5629881770089151 C 5.283102738935993 0.5629343688336026 5.299847843093313 0.5629289880160713 5.316587566433102 0.5629182263810086 C 5.372187553983743 0.5628913222933523 5.427792922351914 0.5628859414758212 5.4833929099025545 0.5629182263810086 C 5.795480326716368 0.5631119358121344 6.107562362712651 0.5628536565706335 6.419649779526464 0.56292360719854 C 6.505140208463324 0.562945130468665 6.590636018217715 0.5631173166296657 6.676126447154576 0.5629666537387901 C 6.702395598342249 0.5629182263810086 6.738134988384962 0.566910792989213 6.7508390985762965 0.5377198578820588 C 6.752695480624586 0.5334474887622283 6.753879260481465 0.5289383636710219 6.754245156073592 0.5242947181415334 C 6.755999302588787 0.5018298049484702 6.746512921281154 0.47649691601123867 6.722482190186489 0.47065872898980765 C 6.712258636877071 0.46817279129035994 6.700942777608805 0.46901219882523826 6.690503991598137 0.46896915228498814 C 6.673156235877313 0.46889382083955033 6.65580848015649 0.4689207249272065 6.638466105253198 0.46894762901486287 C 6.583463388448529 0.4690229604603009 6.52846067164386 0.4690498645479573 6.473457954839191 0.4690498645479573 C 6.161370538025377 0.4690606261830197 5.849283121211563 0.4690175796427696 5.5371957043977496 0.4690498645479573 C 5.452302546206861 0.46905524536548837 5.367387864745847 0.46839340480914204 5.282494706554958 0.46889382083955033 C 5.255014871422749 0.46905524536548837 5.219485333263756 0.4624745055247421 5.206657464269202 0.4939146223599682 C 5.204779558950787 0.4985152213492061 5.203913247328253 0.503680806179228 5.203558113371189 0.5086203966729363 Z M 5.204924841024132 -0.06734769269201984 C 5.197267937677131 -0.038382751921179126 5.217876468821905 -0.01248487714316382 5.246626176891495 -0.010273361137810855 C 5.273890779322453 -0.008169461483083174 5.301811841492228 -0.009751421837277285 5.329151775368624 -0.009772945107402453 C 5.379370945387992 -0.009810610830121358 5.429590115407359 -0.009853657370371582 5.479803904609195 -0.009853657370371582 C 5.7930912437324835 -0.009842895735308943 6.10637320203824 -0.009826753282715095 6.4196551603439955 -0.009853657370371582 C 6.505027211295168 -0.00986441900543411 6.590426166333996 -0.009170293543899866 6.675798217285168 -0.009713756114558492 C 6.703676232914692 -0.009896703910621696 6.740933013501223 -0.006619786034076647 6.750995142284704 -0.03978176447931003 C 6.752480247923335 -0.044672927615237 6.752980663953743 -0.049811608357602344 6.7529752831362115 -0.0549018617421862 C 6.752948379048555 -0.07513911647730265 6.741067533939505 -0.09595749950579657 6.720695758766107 -0.1020216808635408 C 6.707367473741145 -0.10599272420162004 6.691666248184891 -0.10417938869358123 6.677923640210021 -0.10419553114617497 C 6.594816913439514 -0.10430852831433174 6.51171556748654 -0.10417400787604991 6.428608840716034 -0.10418476951111239 C 6.1177213462116935 -0.10422781605136261 5.806833851707354 -0.10430852831433174 5.495940976385482 -0.10426548177408151 C 5.424198536241024 -0.10426010095655025 5.352450715279034 -0.10446995284026989 5.280708275134576 -0.10428700504420663 C 5.265771125667763 -0.10424933932148772 5.249047544780567 -0.10606805564705785 5.23463771543182 -0.10130065131435023 C 5.220583020040135 -0.09664624414979944 5.208616081850585 -0.08130015255060985 5.204924841024132 -0.06734769269201984 Z M 5.205414495419478 0.1265984944051718 C 5.204908698571538 0.1328025770187291 5.204709608322881 0.13923803478613128 5.20606019352323 0.145372166771782 C 5.20711483375936 0.15018261764473972 5.208330898521427 0.15471326600607127 5.210800693768282 0.15902330084862082 C 5.223633943580367 0.18141288259624622 5.249036783145505 0.18065956814186812 5.271754594762538 0.18081561185027495 C 5.342889002525963 0.18131064706315203 5.414039552741981 0.18088018166065045 5.485179341322937 0.18089094329571276 C 5.79666948739078 0.18091784738336913 6.108165014276153 0.18088018166065045 6.4196551603439955 0.18087480084311913 C 6.505145589280856 0.18087480084311913 6.590641399035247 0.18122993480018312 6.676131827972107 0.18085865839052517 C 6.702427883247436 0.18074566122236846 6.737225630222176 0.1838073463976625 6.750349444180951 0.15519215876635473 C 6.752232730316896 0.15108121417246223 6.7536102196049015 0.14665280134422498 6.75394383029184 0.14212215298289332 C 6.754417342234593 0.13568131439796005 6.754422723052124 0.1287831063228685 6.753142088479681 0.12243374163596665 C 6.747115572844656 0.09264015496531008 6.716579433354683 0.08630693273100198 6.690767651657168 0.08447745477036928 C 6.66574146931922 0.08270716580258064 6.640225632585924 0.08407389345552385 6.615145642072663 0.08407389345552385 C 6.567912825783151 0.08407389345552385 6.52068000949364 0.08406851263799253 6.473447193204128 0.08406313182046132 C 6.161365157207846 0.08403622773280495 5.849277740394032 0.08406313182046132 5.5371903235802185 0.08406313182046132 C 5.45259311035355 0.08406313182046132 5.367877519141193 0.08274483152529966 5.283291067549587 0.08403084691527363 C 5.25683358774832 0.08442902741258784 5.219399240183256 0.0813673422372938 5.208470799777241 0.11191424336232869 C 5.206813507977609 0.11654712725675442 5.205807295099261 0.1216911888166512 5.205414495419478 0.1265984944051718 Z M 5.205134692907851 0.314760302656245 C 5.197623071634195 0.3447314563054338 5.220502307777166 0.36989753989919594 5.249709385336915 0.3721413408097367 C 5.275279030245522 0.3741053392086513 5.301709605959133 0.372286622883081 5.32735996313071 0.372286622883081 C 5.37877367464202 0.3722812420655499 5.430187386153331 0.3722381955252997 5.481595716847109 0.372205910620112 C 5.794877675152866 0.3720337244591112 6.108154252641091 0.37243190495642553 6.4214308301293155 0.3721736257149243 C 6.506937401518769 0.3721036750870177 6.592406307185504 0.3723458118759252 6.677891355304833 0.3706723776236994 C 6.7042250763028814 0.3701558191406972 6.742079127635384 0.3751115520869992 6.753142088479681 0.34382747896018007 C 6.754901615812408 0.33885022274375276 6.755558075551223 0.3336738762786686 6.75563340699666 0.32841681755061514 C 6.755708738442098 0.32319742454528066 6.75499847052797 0.3180479821678527 6.7536102196049015 0.3130115369585815 C 6.745183859350929 0.2823462578478587 6.713593079624827 0.2757063290142683 6.685962581601742 0.2754211456851109 C 6.600789620899227 0.27455483406257597 6.5155789944739935 0.27532967178707923 6.4304006529539475 0.2753565758747355 C 6.119513158449608 0.2754534305902985 5.808647187215392 0.27777256294627684 5.497732788623396 0.27776180131121453 C 5.425995729296469 0.27776180131121453 5.354253289152011 0.2777510396761519 5.2825108490075525 0.2776057576028076 C 5.2675683187232085 0.2775734726976199 5.248800027174129 0.2744687409820754 5.234406340277975 0.278859488087594 C 5.219216292387192 0.2834923719820198 5.208799029646649 0.3001352406062461 5.205134692907851 0.314760302656245 Z" fill="#222d39" transform="matrix(1,0,0,1,0,0)" fill-rule="evenodd"></path></g><g clip-path="url(#SvgjsClipPath259522be41061-eb7c-47aa-afeb-97db0deefc7b)"><path d=" M 5.099084160183999 1.4985186362661036 C 5.101101966758226 1.492072416863639 5.102339554790419 1.485954427330582 5.106283694040842 1.4802399991123703 C 5.127344213858243 1.4497307637100545 5.167646537167475 1.456273837828082 5.199990631347955 1.456214648835238 C 5.292664451689064 1.4560424626742376 5.385338272030173 1.4561070324846126 5.478012092371282 1.4561177941196752 C 5.512088809796832 1.4561231749372063 5.546170908039913 1.4561070324846126 5.5802476254654625 1.4560747475794247 C 5.591681862719416 1.456063985944362 5.603525042105748 1.4555151425561728 5.6149054711843895 1.456704303230584 C 5.618736613266655 1.4571078645454292 5.622422473275577 1.4569141551143034 5.626248234540312 1.4568926318441782 C 5.628147663128852 1.456887251026647 5.633485434119874 1.4577804667368386 5.63194652030593 1.456666637507865 C 5.630402225674454 1.4555528082788913 5.6269961681771585 1.4558003258853303 5.6251397861288694 1.4553429563951719 C 5.618273862958966 1.4536533796903521 5.611472509599437 1.4517431894667503 5.604606586429533 1.4500267086742746 C 5.589142116844656 1.4461632816868208 5.574167301655124 1.439770870459669 5.55985970783947 1.432867281567046 C 5.511206355721702 1.4093853938605723 5.471877960385631 1.369319826522716 5.440744550149687 1.3259881029433773 C 5.419000666505815 1.2957317659650314 5.4056185733055395 1.2623868397237346 5.396890887269815 1.2263945512570515 C 5.372983914978371 1.1278556398068555 5.401287015192865 1.0151490357968185 5.473798912244296 0.9434765462802668 C 5.579575023274053 0.838921880830108 5.766240964251432 0.8329599350054577 5.878248061982404 0.9307939593590573 C 5.911603749858763 0.9599257054733674 5.938583168960564 0.998124129127872 5.956442102346858 1.0385179263351358 C 5.977513383799322 1.0861704463920865 5.98291572460072 1.1373689252021455 5.9794558589281115 1.188901014699144 C 5.975533242947813 1.2472506000082648 5.9496407489873295 1.3056324702225728 5.9133471347388955 1.3509335730183574 C 5.88664751814872 1.3842677376245913 5.852366329656983 1.4143895541646556 5.8129356987878165 1.4317265482504162 C 5.788625165181527 1.4424182326850548 5.76322770643392 1.4467497907977294 5.738314521264128 1.4550362497958895 C 5.740757412423325 1.453997752012354 5.7459068548007535 1.4556658054470484 5.7489685399760475 1.4557088519872985 C 5.756690013133424 1.455811087520393 5.764438390378456 1.4559079422359553 5.7721652443533635 1.4559079422359553 C 5.802652956485555 1.4559079422359553 5.833140668617745 1.456171602294988 5.863628380749937 1.4561554598423938 C 5.968258377645533 1.4561016516670815 6.072882993723598 1.4561124133021437 6.177512990619196 1.4561124133021437 C 6.462099049030675 1.4561124133021437 6.746685107442154 1.4562200296527692 7.031265785036101 1.456176983112519 C 7.121545141575794 1.4561662214774564 7.211819117297956 1.456176983112519 7.302098473837648 1.4561823639300502 C 7.333764585009188 1.4561823639300502 7.365479123538509 1.4565913060624274 7.397139853892517 1.4558379916080488 C 7.408633280139316 1.4555689507314855 7.422198321135654 1.4575329491304 7.433401183235763 1.4553752413003593 C 7.434138355237548 1.4552299592270153 7.430371782965658 1.4542667928889172 7.430231881709844 1.4542506504363235 C 7.427955795894116 1.4540085136474161 7.424781113550665 1.4544013133271991 7.422709498801124 1.4533090073683508 C 7.4149073133807795 1.449198062774459 7.403699070463139 1.4485308414005806 7.394960622792352 1.445732816284319 C 7.369466309329182 1.4375701160893786 7.345231107168329 1.4266901030411447 7.322857667873298 1.4118982356476766 C 7.254984035533825 1.367027598254394 7.206163878072589 1.2994283876090156 7.18934344246983 1.2197008142481487 C 7.172410009698915 1.139451301586748 7.189095924863391 1.0486231016588659 7.2372165760455625 0.9816749699347715 C 7.293026415479923 0.9040243921409756 7.390951913731554 0.8567915758514644 7.486558279627205 0.8602837264292604 C 7.525892055780809 0.8617204047101104 7.566936931909357 0.8690436973701723 7.6029937901864155 0.8852776238620219 C 7.725950851593527 0.9406516170763488 7.800475174401653 1.0850081898053314 7.770504020752464 1.217360158622045 C 7.753097076038797 1.2942305178738063 7.710018250883428 1.3640789102472564 7.644845788944654 1.4095952457442917 C 7.622639154993092 1.4251027618694196 7.597284742785735 1.4353263151788376 7.571892664855659 1.4441508559301246 C 7.563972101449625 1.4469058345061363 7.555411220757371 1.4499729004989614 7.54703866867871 1.4507746423111212 C 7.544181454569605 1.451043683187685 7.541851560578564 1.4525610737315038 7.539064297097365 1.4531691061125378 C 7.537837470700234 1.4534381469891011 7.536578359397916 1.4535134784345392 7.535340771365724 1.453750234405915 C 7.534851116970378 1.4538417083039468 7.533371392149278 1.4538847548441969 7.533861046544624 1.4540138944649477 C 7.547883457031121 1.4577158969264632 7.565693963059633 1.455918703871018 7.580125315678506 1.4560263202216435 C 7.608815834755252 1.4562415529228945 7.637506353831998 1.4561823639300502 7.666202253726275 1.4561823639300502 C 7.72837760030013 1.456176983112519 7.790558327691517 1.456209268017707 7.852739055082904 1.4561608406599253 C 7.887262380363548 1.4561393173898 7.921947130170133 1.4551922935042962 7.956448932180653 1.45639221581377 C 7.972817379110785 1.4569572016545536 7.991101397082049 1.458523019556154 8.004235972675886 1.4693707476991995 C 8.028729454078238 1.4896133832518474 8.027965377988798 1.5313685272945232 8.000485542856588 1.5487808528257214 C 7.986064951872779 1.5579228618113534 7.967517273842481 1.5560987646682523 7.951208015905193 1.556109526303315 C 7.920774111948315 1.5561364303909713 7.890345588808968 1.5560610989455332 7.859917065669622 1.5559965291351578 C 7.741517556711498 1.5557436307111883 7.623134190205969 1.555765153981313 7.504788489423158 1.5554261624768433 C 7.063604498399051 1.5541831936271193 6.622312891024317 1.556050337310471 6.181096615095023 1.555969625047502 C 6.078059340188683 1.5559534825949077 5.974941353019374 1.5571480240868505 5.871914839748096 1.5561633344786276 C 5.806758520261916 1.555539159645 5.741446157067328 1.5530424603104893 5.676322122486336 1.5531554574786464 C 5.621287120776478 1.5532523121942088 5.566235976614028 1.5528702741494889 5.511206355721702 1.5533168820045842 C 5.45589155150022 1.55376348985968 5.4006413170891125 1.555969625047502 5.345267323874785 1.555942720959845 C 5.2993797119680925 1.5559265785072518 5.253492100061399 1.5559319593247825 5.207604488154706 1.556152572843565 C 5.191123044056417 1.5562332851065341 5.174738454673692 1.5564269945376599 5.158257010575404 1.5558835319670012 C 5.149879077679213 1.5556091102729064 5.140629452342955 1.5560987646682523 5.132461371330483 1.5539948650135247 C 5.108403736148163 1.5477907823999675 5.095893335387954 1.5213709683214187 5.099084160183999 1.4985186362661036 Z M 5.538858377014913 1.1381330012915865 C 5.536173349066808 1.1572402843451357 5.53694280597378 1.1774829198977834 5.542162198979114 1.1961220718261119 C 5.565622563415463 1.2799498281458086 5.658124197595571 1.3273386881437268 5.739632821559289 1.2968832609167236 C 5.753547615695161 1.291685391181514 5.766558432485778 1.2843405752513268 5.7780733820027015 1.2749187637540687 C 5.791498521743226 1.2639311343552095 5.80335246276462 1.251345402149563 5.81248371011519 1.2365589155736256 C 5.822954781031046 1.2196147211676482 5.830078983442451 1.2002007315148164 5.832812438748338 1.1804585119925772 C 5.835572798141881 1.1605548679443995 5.834631155073908 1.1402530433989078 5.829600090682168 1.1208067688408885 C 5.8129356987878165 1.0563876213564924 5.748704879917015 1.0106614339757374 5.682639202268049 1.01135017861974 C 5.651161419710104 1.0116784084891477 5.622885223583267 1.021864296075847 5.59719181987144 1.0396425171991717 C 5.581603591483343 1.0504310563493735 5.5685013007946935 1.06504535676431 5.5586113581722145 1.0811555244529405 C 5.547887388832388 1.0986270389769826 5.541704829488956 1.117879604103876 5.538858377014913 1.1381330012915865 Z M 7.330885847629958 1.1471727747441243 C 7.329524500794545 1.1678727797869304 7.332726087225652 1.1887449709907367 7.340183900323996 1.2081159141033184 C 7.354965006082402 1.246491904736355 7.3908604398335225 1.2853252648595497 7.430683870382471 1.2981854187592912 C 7.5200108222191275 1.3270427431795064 7.623596940513658 1.2654754289866852 7.629467412440277 1.1691211294541857 C 7.630774951100376 1.1476839524095952 7.627740170012737 1.1266664791324443 7.6202124062864875 1.1065422215654848 C 7.614067512665773 1.0901038240074468 7.60491474204508 1.0749783459270392 7.593507408878782 1.0616608225371391 C 7.550977427111603 1.0120173999936177 7.475226277906346 0.9970641080742111 7.416365514931755 1.0252488303030174 C 7.386012323237845 1.0397877992725162 7.361658743091305 1.0643458504852445 7.346140465331114 1.0940641057104636 C 7.337681820171954 1.110271128114657 7.332091150756962 1.1288726143202663 7.330885847629958 1.1471727747441243 Z" fill="#232e39" transform="matrix(1,0,0,1,0,0)" fill-rule="evenodd"></path></g><g clip-path="url(#SvgjsClipPath259522be41061-eb7c-47aa-afeb-97db0deefc7b)"><path d=" M 5.203466639473157 -0.2518989723796093 C 5.203848677517877 -0.25708069966222485 5.2045912303371935 -0.2626229417194357 5.206399185027701 -0.26751410485536253 C 5.217924896179687 -0.2987120849016814 5.25611793901666 -0.2927393774419687 5.2825108490075525 -0.29268018844912475 C 5.36680673645247 -0.29250262147059275 5.451102623897387 -0.2925887145510931 5.535398511342304 -0.2925887145510931 C 5.848685850465592 -0.2925833337335618 6.161967808771348 -0.2925994761861556 6.475249767077105 -0.2925940953686244 C 6.530257864699305 -0.2925940953686244 6.585260581503975 -0.2925994761861556 6.640263298308643 -0.29262099945628073 C 6.657605673211935 -0.292626380273812 6.674942667297696 -0.292626380273812 6.692285042200988 -0.292626380273812 C 6.702793778839562 -0.29263176109134326 6.7139751176695475 -0.29360030824697236 6.724327810599716 -0.2914479812344633 C 6.748078739182754 -0.2865191523758175 6.757554358855325 -0.26185348481246373 6.7557517849823485 -0.23996969991277778 C 6.75538050857269 -0.23543905155144618 6.753938449474309 -0.23092992646023974 6.752157398871458 -0.22677055450856604 C 6.739582428300873 -0.1974827646858489 6.704122840769787 -0.20098029608117618 6.67791825939249 -0.20099643853377003 C 6.593025101201601 -0.2010610083441453 6.508131943010712 -0.2011524822421769 6.423238784819823 -0.20115786305970818 C 6.110548716442507 -0.2011793863298333 5.797864028882722 -0.2011524822421769 5.4851739605054055 -0.201114816519458 C 5.430171243700737 -0.20110405488439542 5.375168526896068 -0.2011094357019267 5.320165810091399 -0.20110405488439542 C 5.302823435188107 -0.20110405488439542 5.285486441102346 -0.20115786305970818 5.268149447016586 -0.20113633978958312 C 5.258512402818076 -0.20112557815452053 5.248186613975564 -0.20011936527617258 5.238641043675086 -0.2015560435570224 C 5.214470411324609 -0.2051934762081627 5.20183087094365 -0.22957396044235912 5.203466639473157 -0.2518989723796093 Z" fill="#fbfefe" transform="matrix(1,0,0,1,0,0)" fill-rule="evenodd"></path></g><g clip-path="url(#SvgjsClipPath259522be41061-eb7c-47aa-afeb-97db0deefc7b)"><path d=" M 5.203558113371189 0.5086203966729363 C 5.203913247328253 0.503680806179228 5.204779558950787 0.4985152213492061 5.206657464269202 0.4939146223599682 C 5.219485333263756 0.4624745055247421 5.255014871422749 0.46905524536548837 5.282494706554958 0.46889382083955033 C 5.367387864745847 0.46839340480914204 5.452302546206861 0.46905524536548837 5.5371957043977496 0.4690498645479573 C 5.849283121211563 0.4690175796427696 6.161370538025377 0.4690606261830197 6.473457954839191 0.4690498645479573 C 6.52846067164386 0.4690498645479573 6.583463388448529 0.4690229604603009 6.638466105253198 0.46894762901486287 C 6.65580848015649 0.4689207249272065 6.673156235877313 0.46889382083955033 6.690503991598137 0.46896915228498814 C 6.700942777608805 0.46901219882523826 6.712258636877071 0.46817279129035994 6.722482190186489 0.47065872898980765 C 6.746512921281154 0.47649691601123867 6.755999302588787 0.5018298049484702 6.754245156073592 0.5242947181415334 C 6.753879260481465 0.5289383636710219 6.752695480624586 0.5334474887622283 6.7508390985762965 0.5377198578820588 C 6.738134988384962 0.566910792989213 6.702395598342249 0.5629182263810086 6.676126447154576 0.5629666537387901 C 6.590636018217715 0.5631173166296657 6.505140208463324 0.562945130468665 6.419649779526464 0.56292360719854 C 6.107562362712651 0.5628536565706335 5.795480326716368 0.5631119358121344 5.4833929099025545 0.5629182263810086 C 5.427792922351914 0.5628859414758212 5.372187553983743 0.5628913222933523 5.316587566433102 0.5629182263810086 C 5.299847843093313 0.5629289880160713 5.283102738935993 0.5629343688336026 5.266363015596204 0.5629881770089151 C 5.256483834608787 0.5630204619141028 5.2457221995462415 0.5640643405151697 5.2360367279899505 0.5617774930643789 C 5.212070566705662 0.55611687302148 5.201933106476744 0.5310799290484685 5.203558113371189 0.5086203966729363 Z" fill="#fdffff" transform="matrix(1,0,0,1,0,0)" fill-rule="evenodd"></path></g><g clip-path="url(#SvgjsClipPath259522be41061-eb7c-47aa-afeb-97db0deefc7b)"><path d=" M 5.204924841024132 -0.06734769269201984 C 5.208616081850585 -0.08130015255060985 5.220583020040135 -0.09664624414979944 5.23463771543182 -0.10130065131435023 C 5.249047544780567 -0.10606805564705785 5.265771125667763 -0.10424933932148772 5.280708275134576 -0.10428700504420663 C 5.352450715279034 -0.10446995284026989 5.424198536241024 -0.10426010095655025 5.495940976385482 -0.10426548177408151 C 5.806833851707354 -0.10430852831433174 6.1177213462116935 -0.10422781605136261 6.428608840716034 -0.10418476951111239 C 6.51171556748654 -0.10417400787604991 6.594816913439514 -0.10430852831433174 6.677923640210021 -0.10419553114617497 C 6.691666248184891 -0.10417938869358123 6.707367473741145 -0.10599272420162004 6.720695758766107 -0.1020216808635408 C 6.741067533939505 -0.09595749950579657 6.752948379048555 -0.07513911647730265 6.7529752831362115 -0.0549018617421862 C 6.752980663953743 -0.049811608357602344 6.752480247923335 -0.044672927615237 6.750995142284704 -0.03978176447931003 C 6.740933013501223 -0.006619786034076647 6.703676232914692 -0.009896703910621696 6.675798217285168 -0.009713756114558492 C 6.590426166333996 -0.009170293543899866 6.505027211295168 -0.00986441900543411 6.4196551603439955 -0.009853657370371582 C 6.10637320203824 -0.009826753282715095 5.7930912437324835 -0.009842895735308943 5.479803904609195 -0.009853657370371582 C 5.429590115407359 -0.009853657370371582 5.379370945387992 -0.009810610830121358 5.329151775368624 -0.009772945107402453 C 5.301811841492228 -0.009751421837277285 5.273890779322453 -0.008169461483083174 5.246626176891495 -0.010273361137810855 C 5.217876468821905 -0.01248487714316382 5.197267937677131 -0.038382751921179126 5.204924841024132 -0.06734769269201984 Z" fill="#fcfffe" transform="matrix(1,0,0,1,0,0)" fill-rule="evenodd"></path></g><g clip-path="url(#SvgjsClipPath259522be41061-eb7c-47aa-afeb-97db0deefc7b)"><path d=" M 5.205414495419478 0.1265984944051718 C 5.205807295099261 0.1216911888166512 5.206813507977609 0.11654712725675442 5.208470799777241 0.11191424336232869 C 5.219399240183256 0.0813673422372938 5.25683358774832 0.08442902741258784 5.283291067549587 0.08403084691527363 C 5.367877519141193 0.08274483152529966 5.45259311035355 0.08406313182046132 5.5371903235802185 0.08406313182046132 C 5.849277740394032 0.08406313182046132 6.161365157207846 0.08403622773280495 6.473447193204128 0.08406313182046132 C 6.52068000949364 0.08406851263799253 6.567912825783151 0.08407389345552385 6.615145642072663 0.08407389345552385 C 6.640225632585924 0.08407389345552385 6.66574146931922 0.08270716580258064 6.690767651657168 0.08447745477036928 C 6.716579433354683 0.08630693273100198 6.747115572844656 0.09264015496531008 6.753142088479681 0.12243374163596665 C 6.754422723052124 0.1287831063228685 6.754417342234593 0.13568131439796005 6.75394383029184 0.14212215298289332 C 6.7536102196049015 0.14665280134422498 6.752232730316896 0.15108121417246223 6.750349444180951 0.15519215876635473 C 6.737225630222176 0.1838073463976625 6.702427883247436 0.18074566122236846 6.676131827972107 0.18085865839052517 C 6.590641399035247 0.18122993480018312 6.505145589280856 0.18087480084311913 6.4196551603439955 0.18087480084311913 C 6.108165014276153 0.18088018166065045 5.79666948739078 0.18091784738336913 5.485179341322937 0.18089094329571276 C 5.414039552741981 0.18088018166065045 5.342889002525963 0.18131064706315203 5.271754594762538 0.18081561185027495 C 5.249036783145505 0.18065956814186812 5.223633943580367 0.18141288259624622 5.210800693768282 0.15902330084862082 C 5.208330898521427 0.15471326600607127 5.20711483375936 0.15018261764473972 5.20606019352323 0.145372166771782 C 5.204709608322881 0.13923803478613128 5.204908698571538 0.1328025770187291 5.205414495419478 0.1265984944051718 Z" fill="#fcffff" transform="matrix(1,0,0,1,0,0)" fill-rule="evenodd"></path></g><g clip-path="url(#SvgjsClipPath259522be41061-eb7c-47aa-afeb-97db0deefc7b)"><path d=" M 5.205134692907851 0.314760302656245 C 5.208799029646649 0.3001352406062461 5.219216292387192 0.2834923719820198 5.234406340277975 0.278859488087594 C 5.248800027174129 0.2744687409820754 5.2675683187232085 0.2775734726976199 5.2825108490075525 0.2776057576028076 C 5.354253289152011 0.2777510396761519 5.425995729296469 0.27776180131121453 5.497732788623396 0.27776180131121453 C 5.808647187215392 0.27777256294627684 6.119513158449608 0.2754534305902985 6.4304006529539475 0.2753565758747355 C 6.5155789944739935 0.27532967178707923 6.600789620899227 0.27455483406257597 6.685962581601742 0.2754211456851109 C 6.713593079624827 0.2757063290142683 6.745183859350929 0.2823462578478587 6.7536102196049015 0.3130115369585815 C 6.75499847052797 0.3180479821678527 6.755708738442098 0.32319742454528066 6.75563340699666 0.32841681755061514 C 6.755558075551223 0.3336738762786686 6.754901615812408 0.33885022274375276 6.753142088479681 0.34382747896018007 C 6.742079127635384 0.3751115520869992 6.7042250763028814 0.3701558191406972 6.677891355304833 0.3706723776236994 C 6.592406307185504 0.3723458118759252 6.506937401518769 0.3721036750870177 6.4214308301293155 0.3721736257149243 C 6.108154252641091 0.37243190495642553 5.794877675152866 0.3720337244591112 5.481595716847109 0.372205910620112 C 5.430187386153331 0.3722381955252997 5.37877367464202 0.3722812420655499 5.32735996313071 0.372286622883081 C 5.301709605959133 0.372286622883081 5.275279030245522 0.3741053392086513 5.249709385336915 0.3721413408097367 C 5.220502307777166 0.36989753989919594 5.197623071634195 0.3447314563054338 5.205134692907851 0.314760302656245 Z" fill="#fcfffe" transform="matrix(1,0,0,1,0,0)" fill-rule="evenodd"></path></g><g clip-path="url(#SvgjsClipPath259522be41061-eb7c-47aa-afeb-97db0deefc7b)"><path d=" M 5.538858377014913 1.1381330012915865 C 5.541704829488956 1.117879604103876 5.547887388832388 1.0986270389769826 5.5586113581722145 1.0811555244529405 C 5.5685013007946935 1.06504535676431 5.581603591483343 1.0504310563493735 5.59719181987144 1.0396425171991717 C 5.622885223583267 1.021864296075847 5.651161419710104 1.0116784084891477 5.682639202268049 1.01135017861974 C 5.748704879917015 1.0106614339757374 5.8129356987878165 1.0563876213564924 5.829600090682168 1.1208067688408885 C 5.834631155073908 1.1402530433989078 5.835572798141881 1.1605548679443995 5.832812438748338 1.1804585119925772 C 5.830078983442451 1.2002007315148164 5.822954781031046 1.2196147211676482 5.81248371011519 1.2365589155736256 C 5.80335246276462 1.251345402149563 5.791498521743226 1.2639311343552095 5.7780733820027015 1.2749187637540687 C 5.766558432485778 1.2843405752513268 5.753547615695161 1.291685391181514 5.739632821559289 1.2968832609167236 C 5.658124197595571 1.3273386881437268 5.565622563415463 1.2799498281458086 5.542162198979114 1.1961220718261119 C 5.53694280597378 1.1774829198977834 5.536173349066808 1.1572402843451357 5.538858377014913 1.1381330012915865 Z M 5.633851329712 1.1506864485920454 C 5.63135463037749 1.1799365726920437 5.654868802989151 1.2061250116167477 5.683779935584679 1.2087938971122587 C 5.709731618538007 1.2111883609136753 5.736737941727465 1.1888041599835808 5.739057074083443 1.162852477030253 C 5.740127856772166 1.1508424923004525 5.738443660884878 1.1380630506636797 5.731706877335725 1.1278125932666057 C 5.705583008221396 1.088075255798157 5.638016082481205 1.10182862540809 5.633851329712 1.1506864485920454 Z" fill="#fbfefe" transform="matrix(1,0,0,1,0,0)" fill-rule="evenodd"></path></g><g clip-path="url(#SvgjsClipPath259522be41061-eb7c-47aa-afeb-97db0deefc7b)"><path d=" M 5.633851329712 1.1506864485920454 C 5.638016082481205 1.10182862540809 5.705583008221396 1.088075255798157 5.731706877335725 1.1278125932666057 C 5.738443660884878 1.1380630506636797 5.740127856772166 1.1508424923004525 5.739057074083443 1.162852477030253 C 5.736737941727465 1.1888041599835808 5.709731618538007 1.2111883609136753 5.683779935584679 1.2087938971122587 C 5.654868802989151 1.2061250116167477 5.63135463037749 1.1799365726920437 5.633851329712 1.1506864485920454 Z" fill="#202c34" transform="matrix(1,0,0,1,0,0)" fill-rule="evenodd"></path></g><g clip-path="url(#SvgjsClipPath259522be41061-eb7c-47aa-afeb-97db0deefc7b)"><path d=" M 5.984766725831477 0.8918368404326433 C 6.007915002851012 0.893451085692025 6.032247059727427 0.8912503313217346 6.055540618820307 0.8912288080516093 C 6.1087515233870615 0.8911911423288905 6.161962427953817 0.8911965231464218 6.215173332520573 0.8912019039639532 C 6.288115694974505 0.8912126655990156 6.361052676610905 0.8911911423288905 6.433995039064838 0.8912072847814845 C 6.471617715243496 0.8912180464165467 6.509584763744156 0.8925793932519586 6.547164393382564 0.8910512410730773 C 6.550086177302045 0.9827780375286825 6.54351081827883 1.0747631132257882 6.546394936475592 1.1664737672287995 C 6.529418457164427 1.1670710379747709 6.5120168932682905 1.165876496482828 6.494981224964281 1.1658442115776406 C 6.453726496952014 1.1657581184971402 6.412471768939747 1.1657688801322028 6.37121704092748 1.1657258335919527 C 6.276563079734862 1.1656289788763896 6.181796121374088 1.1670656571572393 6.087169064269127 1.166231630439892 C 6.0856301504551835 1.1038033854420666 6.078183098991902 1.0409984832170525 6.049449533374906 0.9844138060581891 C 6.032015684573583 0.9500788093911385 6.008038761654232 0.9220877965934582 5.984766725831477 0.8918368404326433 Z" fill="#212c37" transform="matrix(1,0,0,1,0,0)" fill-rule="evenodd"></path></g><g clip-path="url(#SvgjsClipPath259522be41061-eb7c-47aa-afeb-97db0deefc7b)"><path d=" M 6.633655654380241 0.8911265725185153 C 6.654387944328234 0.8910942876133279 6.675125615093759 0.8912664737743285 6.695863285859284 0.8912288080516093 C 6.703197340154408 0.8912126655990156 6.715696979279555 0.8886729197242549 6.722423001193645 0.8911911423288905 C 6.720103868837667 0.9266023025021959 6.721648163469142 0.9624331664429404 6.721728875732111 0.9978981347915588 C 6.72185263453533 1.0540631081829825 6.721556689571111 1.110238843209469 6.7220140590612685 1.1663984357833617 C 6.721529785483455 1.1670710379747709 6.717730928306375 1.1662908194327362 6.716886139953966 1.166231630439892 C 6.711682889401225 1.1658657348477657 6.706447353943297 1.1657634993146715 6.701227960937962 1.1657204527744214 C 6.679855353703747 1.1655428857958894 6.656637126056307 1.1632829424327547 6.635463609070748 1.1662370112574234 C 6.636087783904376 1.1425936990250112 6.6343497798417745 1.1190418606906312 6.633967741797054 1.0954469758160001 C 6.63323056979527 1.0498068815157457 6.633332805328364 1.004102217405116 6.633322043693301 0.9584513614697985 C 6.633316662875771 0.9361693960727986 6.631955316040359 0.9133385872876085 6.633655654380241 0.8911265725185153 Z" fill="#222d36" transform="matrix(1,0,0,1,0,0)" fill-rule="evenodd"></path></g><g clip-path="url(#SvgjsClipPath259522be41061-eb7c-47aa-afeb-97db0deefc7b)"><path d=" M 6.807773528874692 0.8912933778619847 C 6.83752944982263 0.8936340334880883 6.868022542772351 0.8887213470820363 6.89773541718004 0.8913256627671722 C 6.894453118485964 0.957671142927764 6.896896009645161 1.0247376526375465 6.896965960273068 1.09117460669617 C 6.896992864360724 1.1162384547568378 6.899570275958204 1.1427874084561371 6.897127384799006 1.1676844511733357 C 6.867532888377006 1.166780473828082 6.837696255166099 1.1649133301447303 6.808069473838913 1.1659410662932033 C 6.807160115676127 1.074402598451193 6.808817407475759 0.982826464886464 6.807773528874692 0.8912933778619847 Z" fill="#212c36" transform="matrix(1,0,0,1,0,0)" fill-rule="evenodd"></path></g><g clip-path="url(#SvgjsClipPath259522be41061-eb7c-47aa-afeb-97db0deefc7b)"><path d=" M 6.985485789480034 0.8916915583592988 C 6.988208483150858 0.8907176303861382 6.993912149734007 0.8918637445202997 6.99718368679302 0.8916700350891738 C 7.0072996237518135 0.8910566218906089 7.018206540887703 0.8904593511446375 7.0282955737588395 0.8915677995560798 C 7.0291457429287805 0.8764369406581409 7.026385383535238 0.8606819069265745 7.02626700554955 0.8454595741306041 C 7.02593339486261 0.8036075753723655 7.026094819388549 0.7617501957965958 7.026100200206081 0.7198981970383569 C 7.026105581023611 0.5805942119712395 7.026078676935955 0.44129022690412156 7.026132485111267 0.30198624183700384 C 7.026175531651518 0.17822743861773283 7.025680496438641 0.05446325458093049 7.0264445725280815 -0.06929554863834053 C 7.026729755857239 -0.11562438758259813 7.027170982894804 -0.16195322652685562 7.027133317172085 -0.20828744628864448 C 7.027122555537022 -0.22742701424738127 7.029264120914468 -0.24673876836711883 7.0280749602400565 -0.2658675746907931 C 7.086408403096584 -0.2639735269197851 7.145086218275113 -0.2657384350700426 7.203457326854358 -0.26572229261744873 C 7.320038119486911 -0.26568462689472977 7.436624292936996 -0.265668484442136 7.55320508556955 -0.2656900077122611 C 7.6016378241685345 -0.2657007693473236 7.650070562767519 -0.26585681305573056 7.698503301366505 -0.26584605142066803 C 7.724772452554177 -0.2658406706031367 7.753048648681015 -0.26948348407180833 7.7776174615288065 -0.2584420464976368 C 7.817231040194036 -0.24063154046912433 7.833206687444385 -0.20033459797742342 7.84951056456414 -0.16298634349286 C 7.872077713290297 -0.1112928294699237 7.898104727689063 -0.060874569201898876 7.923071721034169 -0.01030564604299855 C 7.9618566537995825 0.06825428991358229 7.997875846353921 0.14822400006335656 8.037387189486056 0.22645570615052968 C 8.053535022897405 0.2584285239213516 8.069252390906252 0.2906542401161436 8.084480104519754 0.3230736657420614 C 8.09135678932472 0.3377202510621856 8.10078398163951 0.3529372030406247 8.10450212655362 0.36878371067022264 C 8.107741378707445 0.3825586035502806 8.106197084075971 0.3978831718793451 8.10670288092391 0.41195400972362306 C 8.108005038766478 0.44818843497921323 8.106961160165412 0.4845466190380223 8.106907351990099 0.5207971867462065 C 8.10682663972713 0.5753102491555298 8.105917281564345 0.6298017882947278 8.105341534088499 0.6843040890689884 C 8.105045589124279 0.7121982471511059 8.106288557974002 0.7400009313351914 8.10505096994181 0.7678950894173091 C 8.104738882524995 0.7749547220183388 8.105906519929283 0.7822511105907446 8.105320010818373 0.7892461733813991 C 8.077888603043945 0.7869862300182644 8.049590883646982 0.7887457573509906 8.022068001974523 0.7887457573509906 C 8.008072495575682 0.7887457573509906 7.9926618341661175 0.7880839167946441 7.981114599744007 0.7974357776639958 C 7.9646277748281875 0.8107802051415518 7.967926215974858 0.8373991094687578 7.967910073522264 0.8562104475580872 C 7.967877788617077 0.9054287855166381 7.968577294896142 0.9546686467453143 7.968308254019577 1.0038762230688023 C 7.9894602477350105 1.0049792906627133 8.010902805597134 1.0041775488505535 8.03207094176516 1.0037847491707708 C 8.039539516498564 1.0036448479149576 8.05148493141799 1.0056895585768413 8.058329331317768 1.002805440380079 C 8.059287116838336 0.9656724185967667 8.057419973154984 0.9286631556166733 8.056914176307044 0.8916054652787986 C 8.091496690580534 0.8929452888440856 8.13828289901495 0.8817747116491632 8.166451478791162 0.9076403015219912 C 8.187614234141657 0.9270704336274167 8.18507986908443 0.9537539077649977 8.185499572851867 0.9799746315948892 C 8.185795517816087 0.998656830063468 8.185580285114836 1.0174197407950156 8.186172175043277 1.0360857968110007 C 8.1875012369735 1.078072316007521 8.191267809245392 1.1244119165868411 8.15435002016333 1.1532961450947126 C 8.13050761768226 1.171951439475635 8.097889101807686 1.1661455373593916 8.069768949389255 1.166172441447048 C 8.005893264475517 1.1662370112574234 7.941936867298811 1.1646012427279164 7.878082705655197 1.166247772892486 C 7.885309143599698 1.0234946837878225 7.813216950315706 0.8789874481679643 7.690550453055284 0.8037044300879286 C 7.65129738916465 0.7796198908179519 7.6051245939287995 0.7611475442330928 7.559984915658953 0.7521400556857427 C 7.5412919555553115 0.7484057683190395 7.522480617465982 0.7470121365784399 7.503550901390965 0.7453064174210264 C 7.461133916791942 0.7414860369738225 7.41596733443444 0.7464525315551873 7.374976266481205 0.7575477773046717 C 7.349820944522506 0.7643598922992629 7.3260269693992175 0.7742552157392733 7.302453607794712 0.7852858916783823 C 7.290131535648097 0.7910541280719063 7.277169146215262 0.7964833729609604 7.265734908961308 0.8039250436067107 C 7.1787270894806285 0.8605258632181676 7.114151898287826 0.9490564540601967 7.088835151803188 1.0499198786839026 C 7.0825180720214735 1.0750967239127274 7.078057374288049 1.1004403744850213 7.076959687511669 1.1264135807084745 C 7.076550745379293 1.136066767359578 7.076577649466949 1.1457360964632746 7.076642219277325 1.155394663931909 C 7.076658361729917 1.158311067033859 7.077756048506298 1.1637510735579752 7.07649693720398 1.1663338659729863 C 7.055468702291766 1.1664361015060807 7.034375897569177 1.165914162205547 7.01333152020437 1.1658872581178907 C 7.004824447687428 1.165871115665297 6.9936323472223805 1.1681256782109 6.985421219669659 1.1662854386152048 C 6.985136036340501 1.074757732408257 6.985501931932628 0.9832192645662468 6.985485789480034 0.8916915583592988 Z M 7.178323528165784 0.47273034373934775 C 7.177311934469904 0.49143406547805135 7.187013548478789 0.512957335603142 7.205889456378493 0.519468124815982 C 7.221197882254964 0.5247520876316918 7.241402852084892 0.5208671373741127 7.257421545875491 0.5211361782506765 C 7.283066522229537 0.5215666436531783 7.308733021853707 0.5220347747783991 7.334372617390222 0.5214805505726781 C 7.346495599288179 0.5212168905136456 7.359075950676294 0.522093963771243 7.371059031318438 0.5199954449340467 C 7.390010270663581 0.5166754805172513 7.401837307597319 0.5040359401362919 7.403101799717167 0.48469728192889816 C 7.404516954727892 0.46314172689862 7.394632392922944 0.44070909861074414 7.3730660762576035 0.4336387043746518 C 7.359931500663767 0.4293340503496337 7.3436061002738855 0.43122271730311035 7.329933442926921 0.43128728711348563 C 7.306914305528137 0.4313895226465799 7.283889787311821 0.43088910661617164 7.2608437458253805 0.43107205441223473 C 7.243818839156434 0.4312065748505167 7.223161880653878 0.42841931136931743 7.206734244730903 0.433423471673401 C 7.190677885217585 0.43831463480932786 7.179200601423381 0.4565502254228109 7.178323528165784 0.47273034373934775 Z M 7.180949367121045 -0.1206285478866817 C 7.183397639097773 -0.08310272642358618 7.181261454537858 -0.045227151820957934 7.181525114596891 -0.007647522182549826 C 7.18220309760583 0.088674492444762 7.179657970913539 0.1853785451167942 7.182219240058425 0.28167903647398085 C 7.18938648901008 0.2836053691501764 7.199518568421467 0.2823785427530464 7.207019428060061 0.28236240030045245 C 7.226320420544735 0.28232473457773355 7.245589128124223 0.2811893820786351 7.264906263061492 0.28205569370117 C 7.296400188072031 0.28347622952942586 7.327964063710477 0.28247539746860906 7.359484892808672 0.2824538741984841 C 7.4037367361858575 0.28242697011082774 7.447988579563043 0.2829596710464237 7.492235042122699 0.2829596710464237 C 7.509222283068927 0.2829542902288926 7.526231047285279 0.28340627890151926 7.5432129074139755 0.28313723802495583 C 7.562029626320836 0.28283591224320437 7.577827706592653 0.2810548616403532 7.595848064504885 0.28791540399272597 C 7.638630944696034 0.30421390029495077 7.6794175415830805 0.32748593611770505 7.720317135638284 0.34794918518913487 C 7.762330558922461 0.36896665846628574 7.805404003260298 0.3879717059867409 7.847040769317285 0.40976401698839504 C 7.866287953626648 0.41983152658940615 7.885987126608638 0.4335956578344017 7.906810890454663 0.43998806906155363 C 7.918024514189835 0.44342641146403683 7.931282848586891 0.4426946202797837 7.940586282098462 0.43477405687375026 C 7.964407161309405 0.41449375559838386 7.949760575989281 0.38154162903687006 7.938853658853391 0.3589583378581187 C 7.908661891685421 0.29643861896226187 7.877135681769694 0.23447850508965717 7.846411213666127 0.17221706543530124 C 7.813873410054521 0.10628052740708627 7.781938258006418 0.04003728277958851 7.749497309110376 -0.025947682606408118 C 7.735028290768784 -0.05536999286740696 7.723050590944171 -0.095769170892202 7.694941200160802 -0.11518316054503375 C 7.682183281794154 -0.1239969396612583 7.66449115375133 -0.12058012052890021 7.649731571263049 -0.12048864663086856 C 7.617554282426038 -0.12029493719974271 7.585376993589028 -0.12044021927308707 7.55320508556955 -0.12042407682049328 C 7.471895551854488 -0.12038641109777443 7.390586018139427 -0.12042407682049328 7.309276484424366 -0.12042407682049328 C 7.266574316496186 -0.12042407682049328 7.223613869326506 -0.11911115734286276 7.180949367121045 -0.1206285478866817 Z" fill="#222c37" transform="matrix(1,0,0,1,0,0)" fill-rule="evenodd"></path></g><g clip-path="url(#SvgjsClipPath259522be41061-eb7c-47aa-afeb-97db0deefc7b)"><path d=" M 7.027192506164928 -0.547838555782074 C 7.027230171887647 -0.5488501494779532 7.027267837610367 -0.5498617431738324 7.027300122515554 -0.5508733368697117 C 7.059014661044875 -0.5517181252221215 7.091035906173479 -0.551707363587059 7.122766587155393 -0.5512123283741819 C 7.137472361468362 -0.5509863340378685 7.153049828221396 -0.5525037245816873 7.167594178008426 -0.5501738305906463 C 7.180642660521762 -0.5480860733885125 7.193551241779285 -0.5430819130844289 7.205943264553806 -0.5386911659789104 C 7.226503368340799 -0.5314055390415673 7.247343274639418 -0.52465261303982 7.268091707040005 -0.5178996870380729 C 7.3283837674779155 -0.49828660713658407 7.389482950545516 -0.4802716300418832 7.450243142108647 -0.46217055986668204 C 7.483206030305223 -0.4523559486896407 7.516206584224518 -0.4428588057469445 7.548819719281562 -0.43184965307796064 C 7.569094639739397 -0.42500525317818183 7.589229658941419 -0.41964057809950295 7.606808789816087 -0.40679656665235514 C 7.621476898406337 -0.39607797813006007 7.630672715567281 -0.38195333211046933 7.641305211009076 -0.3676457382948153 C 7.62466234238485 -0.3666556678690611 7.607562104270466 -0.3678286860908786 7.590865427470927 -0.36784482854347245 C 7.556783329227846 -0.36787173263112877 7.522706611802295 -0.3678233052733473 7.488629894376746 -0.36783406690840986 C 7.383999897481149 -0.36787173263112877 7.279375281403084 -0.3678986367187851 7.174750665325019 -0.3679040175363164 C 7.143063030883354 -0.3679093983538477 7.111375396441689 -0.3679255408064415 7.079687762000025 -0.3678986367187851 C 7.062609047155765 -0.36788249426619135 7.045191340807035 -0.3688402797867578 7.028161053320558 -0.36740360150590806 C 7.029387879717688 -0.42749119087762977 7.027698303012868 -0.4877509664103522 7.027192506164928 -0.547838555782074 Z" fill="#212c38" transform="matrix(1,0,0,1,0,0)" fill-rule="evenodd"></path></g><g clip-path="url(#SvgjsClipPath259522be41061-eb7c-47aa-afeb-97db0deefc7b)"><path d=" M 7.178323528165784 0.47273034373934775 C 7.179200601423381 0.4565502254228109 7.190677885217585 0.43831463480932786 7.206734244730903 0.433423471673401 C 7.223161880653878 0.42841931136931743 7.243818839156434 0.4312065748505167 7.2608437458253805 0.43107205441223473 C 7.283889787311821 0.43088910661617164 7.306914305528137 0.4313895226465799 7.329933442926921 0.43128728711348563 C 7.3436061002738855 0.43122271730311035 7.359931500663767 0.4293340503496337 7.3730660762576035 0.4336387043746518 C 7.394632392922944 0.44070909861074414 7.404516954727892 0.46314172689862 7.403101799717167 0.48469728192889816 C 7.401837307597319 0.5040359401362919 7.390010270663581 0.5166754805172513 7.371059031318438 0.5199954449340467 C 7.359075950676294 0.522093963771243 7.346495599288179 0.5212168905136456 7.334372617390222 0.5214805505726781 C 7.308733021853707 0.5220347747783991 7.283066522229537 0.5215666436531783 7.257421545875491 0.5211361782506765 C 7.241402852084892 0.5208671373741127 7.221197882254964 0.5247520876316918 7.205889456378493 0.519468124815982 C 7.187013548478789 0.512957335603142 7.177311934469904 0.49143406547805135 7.178323528165784 0.47273034373934775 Z" fill="#feffff" transform="matrix(1,0,0,1,0,0)" fill-rule="evenodd"></path></g><g clip-path="url(#SvgjsClipPath259522be41061-eb7c-47aa-afeb-97db0deefc7b)"><path d=" M 7.180949367121045 -0.1206285478866817 C 7.223613869326506 -0.11911115734286276 7.266574316496186 -0.12042407682049328 7.309276484424366 -0.12042407682049328 C 7.390586018139427 -0.12042407682049328 7.471895551854488 -0.12038641109777443 7.55320508556955 -0.12042407682049328 C 7.585376993589028 -0.12044021927308707 7.617554282426038 -0.12029493719974271 7.649731571263049 -0.12048864663086856 C 7.66449115375133 -0.12058012052890021 7.682183281794154 -0.1239969396612583 7.694941200160802 -0.11518316054503375 C 7.723050590944171 -0.095769170892202 7.735028290768784 -0.05536999286740696 7.749497309110376 -0.025947682606408118 C 7.781938258006418 0.04003728277958851 7.813873410054521 0.10628052740708627 7.846411213666127 0.17221706543530124 C 7.877135681769694 0.23447850508965717 7.908661891685421 0.29643861896226187 7.938853658853391 0.3589583378581187 C 7.949760575989281 0.38154162903687006 7.964407161309405 0.41449375559838386 7.940586282098462 0.43477405687375026 C 7.931282848586891 0.4426946202797837 7.918024514189835 0.44342641146403683 7.906810890454663 0.43998806906155363 C 7.885987126608638 0.4335956578344017 7.866287953626648 0.41983152658940615 7.847040769317285 0.40976401698839504 C 7.805404003260298 0.3879717059867409 7.762330558922461 0.36896665846628574 7.720317135638284 0.34794918518913487 C 7.6794175415830805 0.32748593611770505 7.638630944696034 0.30421390029495077 7.595848064504885 0.28791540399272597 C 7.577827706592653 0.2810548616403532 7.562029626320836 0.28283591224320437 7.5432129074139755 0.28313723802495583 C 7.526231047285279 0.28340627890151926 7.509222283068927 0.2829542902288926 7.492235042122699 0.2829596710464237 C 7.447988579563043 0.2829596710464237 7.4037367361858575 0.28242697011082774 7.359484892808672 0.2824538741984841 C 7.327964063710477 0.28247539746860906 7.296400188072031 0.28347622952942586 7.264906263061492 0.28205569370117 C 7.245589128124223 0.2811893820786351 7.226320420544735 0.28232473457773355 7.207019428060061 0.28236240030045245 C 7.199518568421467 0.2823785427530464 7.18938648901008 0.2836053691501764 7.182219240058425 0.28167903647398085 C 7.179657970913539 0.1853785451167942 7.18220309760583 0.088674492444762 7.181525114596891 -0.007647522182549826 C 7.181261454537858 -0.045227151820957934 7.183397639097773 -0.08310272642358618 7.180949367121045 -0.1206285478866817 Z" fill="#fdffff" transform="matrix(1,0,0,1,0,0)" fill-rule="evenodd"></path></g><g clip-path="url(#SvgjsClipPath259522be41061-eb7c-47aa-afeb-97db0deefc7b)"><path d=" M 7.330885847629958 1.1471727747441243 C 7.332091150756962 1.1288726143202663 7.337681820171954 1.110271128114657 7.346140465331114 1.0940641057104636 C 7.361658743091305 1.0643458504852445 7.386012323237845 1.0397877992725162 7.416365514931755 1.0252488303030174 C 7.475226277906346 0.9970641080742111 7.550977427111603 1.0120173999936177 7.593507408878782 1.0616608225371391 C 7.60491474204508 1.0749783459270392 7.614067512665773 1.0901038240074468 7.6202124062864875 1.1065422215654848 C 7.627740170012737 1.1266664791324443 7.630774951100376 1.1476839524095952 7.629467412440277 1.1691211294541857 C 7.623596940513658 1.2654754289866852 7.5200108222191275 1.3270427431795064 7.430683870382471 1.2981854187592912 C 7.3908604398335225 1.2853252648595497 7.354965006082402 1.246491904736355 7.340183900323996 1.2081159141033184 C 7.332726087225652 1.1887449709907367 7.329524500794545 1.1678727797869304 7.330885847629958 1.1471727747441243 Z M 7.427568377031864 1.1507025910446393 C 7.424996346251916 1.1824709377492728 7.454945976630979 1.2116080646811145 7.486692800065488 1.2084010974324761 C 7.4972445832443135 1.207335695561284 7.507484279006325 1.20190645067223 7.515404842412359 1.1950781932250447 C 7.519978537313941 1.1911340539746218 7.524374665236991 1.1869423971177604 7.527323353244128 1.1816153877618008 C 7.530691745018704 1.1755243023164001 7.5327472173156504 1.1686476175114338 7.533457485229778 1.1617278861662172 C 7.536798972916699 1.129125512744236 7.503803799814936 1.1011344999465555 7.472487441782928 1.1046105080717579 C 7.4567593121390185 1.1063538929518901 7.4433018874933055 1.1164590682756201 7.434967001137364 1.1295882630519254 C 7.430926007171378 1.135953770191421 7.428181790230429 1.1431371615956698 7.427568377031864 1.1507025910446393 Z" fill="#fbfefe" transform="matrix(1,0,0,1,0,0)" fill-rule="evenodd"></path></g><g clip-path="url(#SvgjsClipPath259522be41061-eb7c-47aa-afeb-97db0deefc7b)"><path d=" M 7.427568377031864 1.1507025910446393 C 7.428181790230429 1.1431371615956698 7.430926007171378 1.135953770191421 7.434967001137364 1.1295882630519254 C 7.4433018874933055 1.1164590682756201 7.4567593121390185 1.1063538929518901 7.472487441782928 1.1046105080717579 C 7.503803799814936 1.1011344999465555 7.536798972916699 1.129125512744236 7.533457485229778 1.1617278861662172 C 7.5327472173156504 1.1686476175114338 7.530691745018704 1.1755243023164001 7.527323353244128 1.1816153877618008 C 7.524374665236991 1.1869423971177604 7.519978537313941 1.1911340539746218 7.515404842412359 1.1950781932250447 C 7.507484279006325 1.20190645067223 7.4972445832443135 1.207335695561284 7.486692800065488 1.2084010974324761 C 7.454945976630979 1.2116080646811145 7.424996346251916 1.1824709377492728 7.427568377031864 1.1507025910446393 Z" fill="#252d39" transform="matrix(1,0,0,1,0,0)" fill-rule="evenodd"></path></g></g><g><path d=" M 0.399 1.0199999999999998 Q 0.3045 1.0199999999999998 0.23775000000000002 1.002 Q 0.171 0.9839999999999999 0.1005 0.9494999999999999 L 0.0855 0.702 L 0.1095 0.702 L 0.189 0.8654999999999999 Q 0.2415 0.9089999999999999 0.2925 0.9284999999999999 Q 0.3435 0.9479999999999998 0.3945 0.9479999999999998 Q 0.4815 0.9479999999999998 0.5317500000000001 0.9029999999999999 Q 0.582 0.8579999999999999 0.582 0.7799999999999999 Q 0.582 0.7184999999999999 0.55425 0.6817499999999999 Q 0.5265 0.6449999999999999 0.47175 0.6157499999999999 Q 0.417 0.5864999999999999 0.3375 0.5474999999999999 Q 0.231 0.49649999999999983 0.17400000000000002 0.4402499999999999 Q 0.117 0.3839999999999999 0.117 0.2819999999999999 Q 0.117 0.22799999999999987 0.14325000000000002 0.17774999999999985 Q 0.1695 0.12749999999999984 0.2145 0.08774999999999988 Q 0.2595 0.04799999999999982 0.315 0.02399999999999991 Q 0.3705 -2.220446049250313e-16 0.4305 -2.220446049250313e-16 Q 0.501 -2.220446049250313e-16 0.5625 0.016499999999999848 Q 0.624 0.03299999999999992 0.684 0.06449999999999989 L 0.6990000000000001 0.3044999999999999 L 0.675 0.3044999999999999 L 0.597 0.1439999999999999 Q 0.549 0.10649999999999993 0.51 0.08999999999999986 Q 0.47100000000000003 0.0734999999999999 0.4215 0.0734999999999999 Q 0.357 0.0734999999999999 0.31425000000000003 0.11699999999999988 Q 0.2715 0.16049999999999986 0.2715 0.22649999999999992 Q 0.2715 0.29999999999999993 0.31725000000000003 0.34199999999999986 Q 0.363 0.3839999999999999 0.465 0.43199999999999983 Q 0.555 0.4754999999999999 0.61425 0.5152499999999999 Q 0.6735 0.5549999999999999 0.7020000000000001 0.6044999999999998 Q 0.7305 0.6539999999999999 0.7305 0.7304999999999999 Q 0.7305 0.8009999999999999 0.7005 0.8549999999999999 Q 0.6705 0.9089999999999999 0.621 0.9457499999999999 Q 0.5715 0.9824999999999999 0.51375 1.00125 Q 0.456 1.0199999999999998 0.399 1.0199999999999998 M 0.9015234375 1.005 L 0.9015234375 0.9809999999999999 L 1.0230234375 0.9209999999999999 L 1.0230234375 0.09899999999999987 L 0.9015234375 0.038999999999999924 L 0.9015234375 0.014999999999999902 L 1.2990234375 0.014999999999999902 L 1.2990234375 0.038999999999999924 L 1.1805234375 0.09899999999999987 L 1.1805234375 0.45299999999999985 L 1.6680234375 0.45299999999999985 L 1.6680234375 0.09899999999999987 L 1.5480234375 0.038999999999999924 L 1.5480234375 0.014999999999999902 L 1.9455234375000001 0.014999999999999902 L 1.9455234375000001 0.038999999999999924 L 1.8240234375 0.09899999999999987 L 1.8240234375 0.9209999999999999 L 1.9455234375000001 0.9809999999999999 L 1.9455234375000001 1.005 L 1.5480234375 1.005 L 1.5480234375 0.9809999999999999 L 1.6680234375 0.9209999999999999 L 1.6680234375 0.5354999999999999 L 1.1805234375 0.5354999999999999 L 1.1805234375 0.9209999999999999 L 1.2990234375 0.9809999999999999 L 1.2990234375 1.005 L 0.9015234375 1.005 M 2.131491943359375 1.005 L 2.131491943359375 0.9809999999999999 L 2.254491943359375 0.9209999999999999 L 2.254491943359375 0.09899999999999987 L 2.131491943359375 0.038999999999999924 L 2.131491943359375 0.014999999999999902 L 2.531991943359375 0.014999999999999902 L 2.531991943359375 0.038999999999999924 L 2.410491943359375 0.09899999999999987 L 2.410491943359375 0.9209999999999999 L 2.531991943359375 0.9809999999999999 L 2.531991943359375 1.005 L 2.131491943359375 1.005 M 2.718021240234375 1.005 L 2.718021240234375 0.9809999999999999 L 2.839521240234375 0.9209999999999999 L 2.839521240234375 0.09899999999999987 L 2.718021240234375 0.038999999999999924 L 2.718021240234375 0.014999999999999902 L 3.4560212402343753 0.014999999999999902 L 3.4560212402343753 0.2729999999999999 L 3.4320212402343753 0.2729999999999999 L 3.3375212402343752 0.09749999999999992 L 2.9970212402343748 0.09749999999999992 L 2.9970212402343748 0.4544999999999999 L 3.2310212402343748 0.4544999999999999 L 3.307521240234375 0.3284999999999999 L 3.331521240234375 0.3284999999999999 L 3.331521240234375 0.6569999999999998 L 3.307521240234375 0.6569999999999998 L 3.2310212402343748 0.5339999999999998 L 2.9970212402343748 0.5339999999999998 L 2.9970212402343748 0.9209999999999999 L 3.135021240234375 0.9809999999999999 L 3.135021240234375 1.005 L 2.718021240234375 1.005 M 3.83549267578125 1.005 L 3.83549267578125 0.9809999999999999 L 3.98699267578125 0.9209999999999999 L 3.98699267578125 0.09749999999999992 L 3.74999267578125 0.09749999999999992 L 3.64349267578125 0.32399999999999984 L 3.61949267578125 0.32399999999999984 L 3.61949267578125 0.014999999999999902 L 4.51049267578125 0.014999999999999902 L 4.51049267578125 0.32399999999999984 L 4.48649267578125 0.32399999999999984 L 4.38149267578125 0.09749999999999992 L 4.14299267578125 0.09749999999999992 L 4.14299267578125 0.9209999999999999 L 4.29599267578125 0.9809999999999999 L 4.29599267578125 1.005 L 3.83549267578125 1.005" fill="#202c34" fill-rule="nonzero"></path></g><g></g></g><defs><clipPath id="SvgjsClipPath25957"><path d=" M 4.974981689453125 -0.5515528924110025 h 3.2119725172117346 v 2.108105784822005 h -3.2119725172117346 Z"></path></clipPath><clipPath id="SvgjsClipPath259522be41061-eb7c-47aa-afeb-97db0deefc7b"><path d=" M 4.974981689453125 -0.5515528924110025 L 8.18695420666486 -0.5515528924110025 L 8.18695420666486 1.5565528924110024 L 4.974981689453125 1.5565528924110024 Z"></path></clipPath></defs></svg>